<svg xmlns="http://www.w3.org/2000/svg" version="1.1" xmlns:xlink="http://www.w3.org/1999/xlink" width="200" height="200"><svg xmlns="http://www.w3.org/2000/svg" version="1.1" xmlns:xlink="http://www.w3.org/1999/xlink" viewBox="0 0 200 200"><rect width="200" height="200" fill="url('#gradient')"></rect><defs><linearGradient id="SvgjsLinearGradient1001" gradientTransform="rotate(45 0.5 0.5)"><stop offset="0%" stop-color="#ceaa96"></stop><stop offset="100%" stop-color="#e5cdcd"></stop></linearGradient></defs><g><g fill="#445272" transform="matrix(1.906180193596426,0,0,1.906180193596426,22.952276035022663,114.30576483704488)" stroke="#c8512e" stroke-width="0.2"><path d="M5.75 0L1.07 0L1.07-14.22L5.65-14.22Q7.54-14.22 9.04-13.36Q10.55-12.51 11.39-10.95Q12.24-9.39 12.25-7.46L12.25-7.46L12.25-6.81Q12.25-4.85 11.42-3.31Q10.60-1.76 9.10-0.88Q7.60-0.01 5.75 0L5.75 0ZM5.65-11.57L4.50-11.57L4.50-2.64L5.69-2.64Q7.17-2.64 7.96-3.69Q8.75-4.74 8.75-6.81L8.75-6.81L8.75-7.42Q8.75-9.48 7.96-10.53Q7.17-11.57 5.65-11.57L5.65-11.57ZM20.30-10.64L20.24-7.59L19.16-7.67Q17.61-7.67 17.17-6.69L17.17-6.69L17.17 0L13.88 0L13.88-10.57L16.96-10.57L17.07-9.21Q17.90-10.76 19.38-10.76L19.38-10.76Q19.91-10.76 20.30-10.64L20.30-10.64ZM24.90-10.57L24.90 0L21.60 0L21.60-10.57L24.90-10.57ZM21.41-13.29L21.41-13.29Q21.41-13.99 21.91-14.44Q22.42-14.89 23.23-14.89Q24.04-14.89 24.55-14.44Q25.06-13.99 25.06-13.29Q25.06-12.59 24.55-12.14Q24.04-11.69 23.23-11.69Q22.42-11.69 21.91-12.14Q21.41-12.59 21.41-13.29ZM30.96 0L27.66 0L27.66-8.28L26.12-8.28L26.12-10.57L27.66-10.57L27.66-11.41Q27.66-13.21 28.72-14.21Q29.79-15.21 31.71-15.21L31.71-15.21Q32.41-15.21 33.25-15L33.25-15L33.26-12.58Q32.96-12.67 32.45-12.67L32.45-12.67Q30.96-12.67 30.96-11.38L30.96-11.38L30.96-10.57L33.02-10.57L33.02-8.28L30.96-8.28L30.96 0ZM34.72-13.19L38.01-13.19L38.01-10.57L39.75-10.57L39.75-8.28L38.01-8.28L38.01-3.45Q38.01-2.85 38.22-2.62Q38.44-2.38 39.07-2.38L39.07-2.38Q39.56-2.38 39.89-2.44L39.89-2.44L39.89-0.09Q39.00 0.20 38.04 0.20L38.04 0.20Q36.34 0.20 35.53-0.61Q34.72-1.41 34.72-3.04L34.72-3.04L34.72-8.28L33.37-8.28L33.37-10.57L34.72-10.57L34.72-13.19ZM41.19-14.22L45.69-14.22L48.87-4.33L52.03-14.22L56.54-14.22L56.54 0L53.11 0L53.11-3.32L53.44-10.12L50 0L47.73 0L44.29-10.13L44.62-3.32L44.62 0L41.19 0L41.19-14.22ZM58.16-4.82L58.15-5.38Q58.15-6.96 58.77-8.20Q59.38-9.43 60.54-10.10Q61.69-10.76 63.24-10.76L63.24-10.76Q65.62-10.76 66.98-9.29Q68.35-7.82 68.35-5.29L68.35-5.29L68.35-5.18Q68.35-2.71 66.98-1.25Q65.61 0.20 63.26 0.20L63.26 0.20Q61.01 0.20 59.64-1.16Q58.27-2.51 58.16-4.82L58.16-4.82ZM61.46-5.77L61.45-5.18Q61.45-3.71 61.90-3.03Q62.36-2.34 63.26-2.34L63.26-2.34Q65.02-2.34 65.06-5.05L65.06-5.05L65.06-5.38Q65.06-8.22 63.24-8.22L63.24-8.22Q61.59-8.22 61.46-5.77L61.46-5.77ZM78.77-8.57L78.77-6.03L73.38-6.03L73.38-2.64L79.75-2.64L79.75 0L69.95 0L69.95-14.22L79.77-14.22L79.77-11.57L73.38-11.57L73.38-8.57L78.77-8.57Z"></path></g></g></svg><style>@media (prefers-color-scheme: light) { :root { filter: none; } }
@media (prefers-color-scheme: dark) { :root { filter: none; } }
</style></svg>